# xmcd CD database file
#
# Track frame offsets:
#	150
#	17707
#	30537
#	45757
#	61715
#	81720
#	94770
#	109060
#	122247
#	138002
#	155010
#	171485
#	189237
#	202880
#	218370
#	236925
#	255490
#	269907
#	281560
#	297080
#	310732
#
# Disc length: 4405 seconds
#
# Revision: 0
# Processed by: cddbd v1.5.2PL0 Copyright (c) Steve Scherf et al.
# Submitted via: CDex 1.70beta2
#
DISCID=28113315
DTITLE=Jones Country - Jones Country JCY-013
DYEAR=0000
DGENRE=Country
TTITLE0=Lynn Anderson and Gary Morris/You're Welcome To Tonight
TTITLE1=Moe Bandy and Becky Hobbs/Let's Get Over Them Together
TTITLE2=Bellamy Brothers/I Love Her Mind
TTITLE3=Bellamy Brothers/Lie To You For Your Love
TTITLE4=Bellamy Brothers/You Ain't Just Whistlin' Dixie
TTITLE5=Jann Browne/Tell Me Why
TTITLE6=T Graham Brown/Come As You Were
TTITLE7=Earl Thomas Conley/Chance Of Lovin' You
TTITLE8=Earl Thomas Conley/Don't Make It Easy For Me
TTITLE9=Earl Thomas Conley/Love Out Loud
TTITLE10=Earl Thomas Conley and Emmylou Harris/We Believe In Happy Endings
TTITLE11=Earl Thomas Conley/What I'd Say
TTITLE12=Lacy J Dalton/Crazy Blue Eyes
TTITLE13=Charlie Daniels/In America
TTITLE14=Charlie Daniels/South's Gonna Do It
TTITLE15=John Denver and Emmylou Harris/Wild Montana Skies
TTITLE16=Desert Rose Band/He's Back And I'm Blue
TTITLE17=Desert Rose Band/Story Of Love
TTITLE18=Johnny Duncan and Janie Fricke/Thinkin' Of A Rendezvous
TTITLE19=Holly Dunn/(It's Always Gonna Be) Someday
TTITLE20=Eagles/Best Of My Love
EXTD=YEAR: 0000
EXTT0=
EXTT1=
EXTT2=
EXTT3=
EXTT4=
EXTT5=
EXTT6=
EXTT7=
EXTT8=
EXTT9=
EXTT10=
EXTT11=
EXTT12=
EXTT13=
EXTT14=
EXTT15=
EXTT16=
EXTT17=
EXTT18=
EXTT19=
EXTT20=
PLAYORDER=
